{
	"asset":{
		"generator":"Khronos glTF Blender I/O v3.5.30",
		"version":"2.0"
	},
	"scene":0,
	"scenes":[
		{
			"name":"Scene",
			"nodes":[
				0
			]
		}
	],
	"nodes":[
		{
			"mesh":0,
			"name":"\u7403.001",
			"rotation":[
				0,
				0.7071068286895752,
				0,
				0.7071068286895752
			],
			"translation":[
				-3.200000047683716,
				1.6399999856948853,
				4
			]
		}
	],
	"materials":[
		{
			"doubleSided":true,
			"name":"Material",
			"pbrMetallicRoughness":{
				"baseColorFactor":[
					0.800000011920929,
					0.800000011920929,
					0.800000011920929,
					1
				],
				"metallicFactor":0,
				"roughnessFactor":0.5
			}
		}
	],
	"meshes":[
		{
			"name":"\u7403.001",
			"primitives":[
				{
					"attributes":{
						"POSITION":0,
						"TEXCOORD_0":1,
						"TEXCOORD_1":2,
						"NORMAL":3
					},
					"indices":4,
					"material":0
				}
			]
		}
	],
	"accessors":[
		{
			"bufferView":0,
			"componentType":5126,
			"count":5650,
			"max":[
				9.18110466003418,
				1.432152509689331,
				1
			],
			"min":[
				-1.7554030418395996,
				-3.377044677734375,
				-9
			],
			"type":"VEC3"
		},
		{
			"bufferView":1,
			"componentType":5126,
			"count":5650,
			"type":"VEC2"
		},
		{
			"bufferView":2,
			"componentType":5126,
			"count":5650,
			"type":"VEC2"
		},
		{
			"bufferView":3,
			"componentType":5126,
			"count":5650,
			"type":"VEC3"
		},
		{
			"bufferView":4,
			"componentType":5123,
			"count":8340,
			"type":"SCALAR"
		}
	],
	"bufferViews":[
		{
			"buffer":0,
			"byteLength":67800,
			"byteOffset":0,
			"target":34962
		},
		{
			"buffer":0,
			"byteLength":45200,
			"byteOffset":67800,
			"target":34962
		},
		{
			"buffer":0,
			"byteLength":45200,
			"byteOffset":113000,
			"target":34962
		},
		{
			"buffer":0,
			"byteLength":67800,
			"byteOffset":158200,
			"target":34962
		},
		{
			"buffer":0,
			"byteLength":16680,
			"byteOffset":226000,
			"target":34963
		}
	],
	"buffers":[
		{
			"byteLength":242680,
			"uri":"data:application/octet-stream;base64,"
		}
	]
}
